HIERARCHY
ROOT Hips
{
  OFFSET 5.84602e-005 68.8428 3.50346
  CHANNELS 6 Xposition Yposition Zposition Zrotation Xrotation Yrotation
  JOINT Spine
  {
    OFFSET 0 8.597 -4.6522
    CHANNELS 3 Zrotation Xrotation Yrotation
    JOINT Spine1
    {
      OFFSET 0 7.8454 0.4098
      CHANNELS 3 Zrotation Xrotation Yrotation
      JOINT Spine2
      {
        OFFSET 0 9.7078 -2.1609
        CHANNELS 3 Zrotation Xrotation Yrotation
        JOINT Neck
        {
          OFFSET 0 21.8761 -0.4549
          CHANNELS 3 Zrotation Xrotation Yrotation
          JOINT Head
          {
            OFFSET 0 12.3537 3.3602
            CHANNELS 3 Zrotation Xrotation Yrotation
            End Site
            {
              OFFSET 0.0001 18.9506 0.5657
            }
          }
        }
        JOINT LeftShoulder
        {
          OFFSET 2.2086 21.1115 7.2329
          CHANNELS 3 Zrotation Xrotation Yrotation
          JOINT LeftArm
          {
            OFFSET 13.1193 3.0282 -4.8998
            CHANNELS 3 Zrotation Xrotation Yrotation
            JOINT LeftForeArm
            {
              OFFSET 27.4081 -0.0973053 -0.2375
              CHANNELS 3 Zrotation Xrotation Yrotation
              JOINT LeftHand
              {
                OFFSET 22.8641 0.0662994 -0.1369
                CHANNELS 3 Zrotation Xrotation Yrotation
                JOINT LeftHandIndex1
                {
                  OFFSET 8.8614 0.775009 2.4612
                  CHANNELS 3 Zrotation Xrotation Yrotation
                  JOINT LeftHandIndex2
                  {
                    OFFSET 3.3146 -0.808304 0.5841
                    CHANNELS 3 Zrotation Xrotation Yrotation
                    JOINT LeftHandIndex3
                    {
                      OFFSET 2.2628 -0.552002 0.3989
                      CHANNELS 3 Zrotation Xrotation Yrotation
                      End Site
                      {
                        OFFSET 1.6102 -0.4807 0.2612
                      }
                    }
                  }
                }
                JOINT LeftHandMiddle1
                {
                  OFFSET 8.9937 0.895004 0.2143
                  CHANNELS 3 Zrotation Xrotation Yrotation
                  JOINT LeftHandMiddle2
                  {
                    OFFSET 4.0984 0.0113983 -0.0242
                    CHANNELS 3 Zrotation Xrotation Yrotation
                    JOINT LeftHandMiddle3
                    {
                      OFFSET 2.2716 0.00689697 -0.0138001
                      CHANNELS 3 Zrotation Xrotation Yrotation
                      End Site
                      {
                        OFFSET 2.0404 -0.1441 0.0027
                      }
                    }
                  }
                }
                JOINT LeftHandRing1
                {
                  OFFSET 8.5234 0.597198 -2.0164
                  CHANNELS 3 Zrotation Xrotation Yrotation
                  JOINT LeftHandRing2
                  {
                    OFFSET 3.7188 -0.188293 -0.2328
                    CHANNELS 3 Zrotation Xrotation Yrotation
                    JOINT LeftHandRing3
                    {
                      OFFSET 2.1191 -0.106598 -0.1332
                      CHANNELS 3 Zrotation Xrotation Yrotation
                      End Site
                      {
                        OFFSET 1.8737 -0.2304 -0.0886
                      }
                    }
                  }
                }
                JOINT LeftHandPinky1
                {
                  OFFSET 7.9094 -0.601089 -3.4825
                  CHANNELS 3 Zrotation Xrotation Yrotation
                  JOINT LeftHandPinky2
                  {
                    OFFSET 2.2874 -0.477005 -0.6314
                    CHANNELS 3 Zrotation Xrotation Yrotation
                    JOINT LeftHandPinky3
                    {
                      OFFSET 1.6774 -0.349396 -0.4633
                      CHANNELS 3 Zrotation Xrotation Yrotation
                      End Site
                      {
                        OFFSET 1.4888 -0.4091 -0.3416
                      }
                    }
                  }
                }
                JOINT LeftHandThumb1
                {
                  OFFSET 1.833 -1.3875 1.3896
                  CHANNELS 3 Zrotation Xrotation Yrotation
                  JOINT LeftHandThumb2
                  {
                    OFFSET 3.4129 -1.121 2.5732
                    CHANNELS 3 Zrotation Xrotation Yrotation
                    JOINT LeftHandThumb3
                    {
                      OFFSET 2.2474 -0.804199 1.6192
                      CHANNELS 3 Zrotation Xrotation Yrotation
                      End Site
                      {
                        OFFSET 1.6527 -0.5689 1.1317
                      }
                    }
                  }
                }
              }
            }
          }
        }
        JOINT RightShoulder
        {
          OFFSET -2.2086 21.1115 7.2329
          CHANNELS 3 Zrotation Xrotation Yrotation
          JOINT RightArm
          {
            OFFSET -13.1216 3.0287 -4.9007
            CHANNELS 3 Zrotation Xrotation Yrotation
            JOINT RightForeArm
            {
              OFFSET -27.4081 -0.0973053 -0.2375
              CHANNELS 3 Zrotation Xrotation Yrotation
              JOINT RightHand
              {
                OFFSET -22.8641 0.0664063 -0.1369
                CHANNELS 3 Zrotation Xrotation Yrotation
                JOINT RightHandIndex1
                {
                  OFFSET -8.8614 0.774994 2.4612
                  CHANNELS 3 Zrotation Xrotation Yrotation
                  JOINT RightHandIndex2
                  {
                    OFFSET -3.3146 -0.808304 0.5841
                    CHANNELS 3 Zrotation Xrotation Yrotation
                    JOINT RightHandIndex3
                    {
                      OFFSET -2.2628 -0.552002 0.3989
                      CHANNELS 3 Zrotation Xrotation Yrotation
                      End Site
                      {
                        OFFSET -1.6102 -0.4807 0.2612
                      }
                    }
                  }
                }
                JOINT RightHandMiddle1
                {
                  OFFSET -8.9937 0.894989 0.2143
                  CHANNELS 3 Zrotation Xrotation Yrotation
                  JOINT RightHandMiddle2
                  {
                    OFFSET -4.0984 0.0113983 -0.0242
                    CHANNELS 3 Zrotation Xrotation Yrotation
                    JOINT RightHandMiddle3
                    {
                      OFFSET -2.2716 0.00691223 -0.0138001
                      CHANNELS 3 Zrotation Xrotation Yrotation
                      End Site
                      {
                        OFFSET -2.0404 -0.1441 0.0027
                      }
                    }
                  }
                }
                JOINT RightHandRing1
                {
                  OFFSET -8.5234 0.597198 -2.0164
                  CHANNELS 3 Zrotation Xrotation Yrotation
                  JOINT RightHandRing2
                  {
                    OFFSET -3.7188 -0.188309 -0.2328
                    CHANNELS 3 Zrotation Xrotation Yrotation
                    JOINT RightHandRing3
                    {
                      OFFSET -2.1191 -0.106598 -0.1332
                      CHANNELS 3 Zrotation Xrotation Yrotation
                      End Site
                      {
                        OFFSET -1.8737 -0.2304 -0.0886
                      }
                    }
                  }
                }
                JOINT RightHandPinky1
                {
                  OFFSET -7.9094 -0.601105 -3.4825
                  CHANNELS 3 Zrotation Xrotation Yrotation
                  JOINT RightHandPinky2
                  {
                    OFFSET -2.2874 -0.477005 -0.6314
                    CHANNELS 3 Zrotation Xrotation Yrotation
                    JOINT RightHandPinky3
                    {
                      OFFSET -1.6774 -0.349396 -0.4633
                      CHANNELS 3 Zrotation Xrotation Yrotation
                      End Site
                      {
                        OFFSET -1.4888 -0.4091 -0.3416
                      }
                    }
                  }
                }
                JOINT RightHandThumb1
                {
                  OFFSET -1.833 -1.38751 1.3896
                  CHANNELS 3 Zrotation Xrotation Yrotation
                  JOINT RightHandThumb2
                  {
                    OFFSET -3.41299 -1.12099 2.5732
                    CHANNELS 3 Zrotation Xrotation Yrotation
                    JOINT RightHandThumb3
                    {
                      OFFSET -2.24741 -0.804108 1.6192
                      CHANNELS 3 Zrotation Xrotation Yrotation
                      End Site
                      {
                        OFFSET -1.6527 -0.5689 1.1317
                      }
                    }
                  }
                }
              }
            }
          }
        }
      }
    }
  }
  JOINT RightUpLeg
  {
    OFFSET -9.1966 3.8861 -0.7581
    CHANNELS 3 Zrotation Xrotation Yrotation
    JOINT RightLeg
    {
      OFFSET -0.7359 -41.0265 0
      CHANNELS 3 Zrotation Xrotation Yrotation
      JOINT RightFoot
      {
        OFFSET 0 -40.2855 0
        CHANNELS 3 Zrotation Xrotation Yrotation
        JOINT RightToeBase
        {
          OFFSET 0 -5.6122 11.7359
          CHANNELS 3 Zrotation Xrotation Yrotation
          End Site
          {
            OFFSET 0 0 7.8731
          }
        }
      }
    }
  }
  JOINT LeftUpLeg
  {
    OFFSET 9.1965 3.8864 -0.7581
    CHANNELS 3 Zrotation Xrotation Yrotation
    JOINT LeftLeg
    {
      OFFSET 0.7359 -41.0268 0
      CHANNELS 3 Zrotation Xrotation Yrotation
      JOINT LeftFoot
      {
        OFFSET 0 -40.2855 0
        CHANNELS 3 Zrotation Xrotation Yrotation
        JOINT LeftToeBase
        {
          OFFSET 0 -5.6122 11.7359
          CHANNELS 3 Zrotation Xrotation Yrotation
          End Site
          {
            OFFSET 0 0 7.8731
          }
        }
      }
    }
  }
}
MOTION
Frames:	4
Frame Time:	0.0333333
5.84602e-005 68.8428 3.50346 0 0 -0 0 0 -0 0 0 -0 0 0 -0 0 0 -0 0 0 -0 0 0 -0 0 0 -0 0 0 -0 0 0 -0 0 0 -0 0 0 -0 0 0 -0 0 0 -0 -0.0146107 -8.87603e-005 -2.63497e-007 2.99804e-018 -2.42657e-020 -1.42182e-022 0 0 -0 -0.0187562 -0.001176 5.858e-005 5.06224e-018 3.88251e-019 1.21329e-020 0 0 -0 -0.012269 -0.00324817 0.000675346 -1.74678e-018 3.88251e-019 -0 0 0 -0 0 0 -0 0 0 -0 0 0 -0 0 0 -0 0 0 -0 0 0 -0 0 0 -0 0 0 -0 0 0 -0 0 0 -0 0.0149955 -9.10982e-005 2.64101e-007 -9.69331e-018 1.21329e-020 -4.7394e-023 0 0 -0 0.0189956 -0.00119102 -5.96516e-005 -5.41541e-019 0 2.42657e-020 0 0 -0 0.0122698 -0.00324857 -0.000673756 -2.00796e-019 0 -1.94126e-019 0 0 -0 0 0 -0 0 0 -0 3.39842 1.33031 -0.0637918 -5.65207e-008 0.834868 -0.000436188 -3.39935 -2.16518 -0.0642563 -8.89002e-024 -1.18485e-023 -1.48106e-024 -3.39844 1.35642 0.0640283 -3.18788e-007 0.782166 -0.000588827 3.39931 -2.13858 0.0634662 1.1399e-023 0 -0 
39.738 16.3887 0.498138 -0.00885383 -58.9983 179.995 -0.183797 8.09188 -0.142317 -0.352414 16.1843 -0.262092 -0.352414 16.1844 -0.262091 -5.86942e-007 -33.0001 -3.42264e-007 4.21526e-008 -15.0017 1.37796e-007 3.90467 -14.9299 -75.5653 -0.754888 -4.21129 9.28957 -1.31008 -11.6991 -10.6379 63.8364 -13.6487 -3.33153 -4.77083e-015 1.59028e-015 -1.59028e-015 6.63521e-007 6.15773e-007 -5.39983e-006 -3.18055e-015 -3.97569e-015 -4.77083e-015 -4.77083e-015 1.59028e-015 -1.59028e-015 -0.0146343 -8.95804e-005 3.502e-006 4.95356e-007 -1.79198e-007 1.19214e-006 -4.77083e-015 1.59028e-015 -1.59028e-015 -0.018687 -0.00117153 6.30481e-005 7.95139e-015 -9.54166e-015 -0 -4.77083e-015 1.59028e-015 -1.59028e-015 -0.0123451 -0.00326915 0.000683132 4.95583e-007 -1.79448e-007 1.19219e-006 -4.77083e-015 1.59028e-015 -1.59028e-015 6.63521e-007 6.15773e-007 -5.39983e-006 -3.18055e-015 -3.97569e-015 -4.77083e-015 -1.25623 -9.98159 45.3246 -1.31925 -4.06363 38.3341 -4.59245 -11.979 2.3845 -65.6816 -5.32219 0.0561293 1.11319e-014 1.98785e-015 -3.18055e-015 1.43125e-014 7.95139e-016 -4.77083e-015 1.11319e-014 2.38542e-015 -4.77083e-015 1.11319e-014 1.98785e-015 -3.18055e-015 0.015009 -8.98062e-005 7.19215e-006 1.59028e-015 1.59028e-015 3.18055e-015 1.11319e-014 1.98785e-015 -3.18055e-015 0.0189591 -0.00118819 -5.44605e-005 -3.18055e-015 8.34896e-015 1.59028e-015 1.11319e-014 1.98785e-015 -3.18055e-015 0.0123098 -0.00325889 -0.000677752 -4.8553e-031 8.74653e-015 3.18055e-015 1.11319e-014 1.98785e-015 -3.18055e-015 1.43125e-014 7.95139e-016 -4.77083e-015 1.11319e-014 2.38542e-015 -4.77083e-015 -147.67 -9.17199 -173.959 -144.837 63.3114 141.4 -11.7774 -6.57913 -3.95084 -2.07096e-007 5.98407e-007 9.40231e-008 147.669 -9.18951 173.929 144.925 63.3184 -141.498 11.7548 -6.6115 3.91374 1.37865e-007 3.9902e-007 -6.25995e-008 
39.7382 16.1495 0.612236 -0.00872352 -58.2707 179.995 -0.184259 8.09199 -0.142038 -0.353392 16.1843 -0.261457 -0.353392 16.1843 -0.261457 -2.79311e-006 -33.0506 -7.38155e-007 -1.49326e-007 -15.0613 5.59477e-009 3.77636 -14.4405 -74.3822 -0.676642 -4.15395 7.58339 -1.2474 -11.7241 -10.1028 62.8834 -13.4748 -3.47179 -9.04705e-007 -5.70555e-008 -5.44677e-006 2.3659e-006 -3.03722e-007 -1.35982e-007 -4.58488e-007 -2.373e-007 -4.24611e-006 -9.04705e-007 -5.70555e-008 -5.44677e-006 -0.0146005 -8.82138e-005 3.11489e-006 -9.04153e-007 -5.63582e-008 -5.44677e-006 -9.04705e-007 -5.70555e-008 -5.44677e-006 -0.0187235 -0.00117616 6.83201e-005 -4.59413e-007 -2.36661e-007 -4.24614e-006 -9.04705e-007 -5.70555e-008 -5.44677e-006 -0.0122404 -0.00324176 0.000675838 -9.04393e-007 -5.63449e-008 -5.44677e-006 -9.04705e-007 -5.70555e-008 -5.44677e-006 2.3659e-006 -3.03722e-007 -1.35982e-007 -4.58488e-007 -2.373e-007 -4.24611e-006 -1.23191 -9.88184 47.0572 -1.24508 -4.02461 36.0983 -4.22501 -11.9971 3.00331 -65.118 -5.16309 0.138057 -1.0696e-007 -4.51309e-007 -3.14355e-006 -0 -1.59028e-015 -0 1.0696e-007 4.51309e-007 3.14355e-006 -1.0696e-007 -4.51309e-007 -3.14355e-006 0.0149375 -9.08464e-005 -4.51509e-008 1.08926e-007 4.51707e-007 3.14349e-006 -1.0696e-007 -4.51309e-007 -3.14355e-006 0.019033 -0.00119279 -7.05168e-005 -6.36111e-015 3.18055e-015 -0 -1.0696e-007 -4.51309e-007 -3.14355e-006 0.0122063 -0.0032323 -0.000677296 7.95139e-015 -1.74931e-014 7.95139e-015 -1.0696e-007 -4.51309e-007 -3.14355e-006 -0 -1.59028e-015 -0 1.0696e-007 4.51309e-007 3.14355e-006 -147.062 -9.19572 -174.041 -144.846 63.3062 141.405 -12.5592 -6.39769 -3.48812 1.95804e-007 -2.00349e-006 6.22428e-006 146.799 -9.09615 174.131 144.933 63.314 -141.502 12.8013 -6.47018 3.27806 -6.90623e-008 -1.9944e-007 3.14722e-008 
39.7384 15.9119 0.726269 -0.00857641 -57.5493 179.995 -0.184718 8.09192 -0.141754 -0.354366 16.1843 -0.260812 -0.354366 16.1842 -0.260813 -7.49194e-006 -33.1011 -3.14076e-006 -5.9196e-008 -15.1208 2.02213e-008 3.63762 -13.9526 -73.1981 -0.596444 -4.09875 5.871 -1.18446 -11.7486 -9.56756 61.9304 -13.2985 -3.6091 -5.14657e-007 6.67255e-007 1.24881e-007 5.14657e-007 -6.67255e-007 -1.24881e-007 1.84917e-006 3.6206e-007 -1.11625e-008 -5.14657e-007 6.67255e-007 1.24881e-007 -0.0145842 -8.78488e-005 -2.73114e-006 1.84913e-006 3.62061e-007 -1.11178e-008 -5.14657e-007 6.67255e-007 1.24881e-007 -0.0187489 -0.00117617 5.9483e-005 1.84912e-006 3.62057e-007 -1.11221e-008 -5.14657e-007 6.67255e-007 1.24881e-007 -0.0122458 -0.00323989 0.000670674 1.84914e-006 3.62041e-007 -1.11743e-008 -5.14657e-007 6.67255e-007 1.24881e-007 5.14657e-007 -6.67255e-007 -1.24881e-007 1.84917e-006 3.6206e-007 -1.11625e-008 -1.21061 -9.78102 48.7958 -1.16896 -3.98831 33.8484 -3.85719 -12.0113 3.62259 -64.5546 -5.00319 0.218403 0 7.95139e-016 -0 4.41391e-032 1.59028e-015 -1.59028e-015 1.59028e-015 1.59028e-015 -1.59028e-015 0 7.95139e-016 -0 0.015014 -9.00372e-005 6.78508e-007 3.18055e-015 0 1.59028e-015 0 7.95139e-016 -0 0.0189666 -0.00119061 -6.35566e-005 0 3.18055e-015 -0 0 7.95139e-016 -0 0.0123092 -0.00325827 -0.00068793 1.59028e-015 -2.78299e-015 -0 0 7.95139e-016 -0 4.41391e-032 1.59028e-015 -1.59028e-015 1.59028e-015 1.59028e-015 -1.59028e-015 -146.454 -9.21984 -174.124 -144.855 63.3007 141.41 -13.3431 -6.2225 -3.02271 7.05902e-007 -9.42915e-007 1.10709e-006 145.928 -9.00521 174.333 144.942 63.3091 -141.507 13.8513 -6.34049 2.63902 -9.43613e-007 -1.16052e-007 -5.21651e-006 
